<svg width="32" height="32" viewBox="0 0 32 32" fill="black" xmlns="http://www.w3.org/2000/svg">
<path d="M16.9639 9.33301C17.0577 9.33301 17.1351 9.36432 17.1953 9.42676C17.2554 9.48904 17.2851 9.56911 17.2852 9.66602V10.333C17.2852 10.4303 17.2555 10.5107 17.1953 10.5732C17.1351 10.6356 17.0577 10.667 16.9639 10.667H9.89258C9.45073 10.667 9.07253 10.8299 8.75781 11.1562C8.44311 11.4826 8.28519 11.8747 8.28516 12.333V21C8.28519 21.4583 8.44316 21.8504 8.75781 22.1768C9.07254 22.5031 9.45071 22.666 9.89258 22.666H18.25C18.6919 22.666 19.0701 22.5031 19.3848 22.1768C19.6994 21.8504 19.8574 21.4583 19.8574 21V17.667C19.8574 17.5697 19.8868 17.4891 19.9473 17.4268C20.0072 17.3641 20.0848 17.333 20.1787 17.333H20.8213C20.9149 17.333 20.9925 17.3641 21.0527 17.4268C21.1132 17.4892 21.1426 17.5696 21.1426 17.667V21C21.1426 21.8262 20.8597 22.5326 20.2939 23.1191C19.7281 23.706 19.0467 24 18.25 24H9.89258C9.09588 23.9999 8.41451 23.7059 7.84863 23.1191C7.28305 22.5326 7 21.8261 7 21V12.333C7.00006 11.5069 7.28308 10.8005 7.84863 10.2139C8.41452 9.62712 9.09587 9.33306 9.89258 9.33301H16.9639Z"/>
<path d="M24.3574 8C24.5313 8.00009 24.6824 8.06636 24.8096 8.19824C24.9365 8.33006 25 8.48649 25 8.66699V14C25 14.1805 24.9367 14.3368 24.8096 14.4688C24.6823 14.6007 24.5314 14.6669 24.3574 14.667C24.1833 14.667 24.0324 14.6007 23.9053 14.4688L22.1377 12.6357L15.5879 19.4268C15.521 19.4962 15.4444 19.5312 15.3574 19.5312C15.2704 19.5312 15.1929 19.4962 15.126 19.4268L13.9814 18.2393C13.9146 18.1699 13.8809 18.0904 13.8809 18C13.8809 17.9099 13.9144 17.8302 13.9814 17.7607L20.5303 10.9688L18.7627 9.13574C18.6355 9.00387 18.5714 8.8474 18.5713 8.66699C18.5713 8.48643 18.6354 8.33014 18.7627 8.19824C18.8897 8.06639 19.04 8.00011 19.2139 8H24.3574Z"/>
</svg>
